<svg width="19" height="19" viewBox="0 0 19 19" fill="none" xmlns="http://www.w3.org/2000/svg">
<path fill-rule="evenodd" clip-rule="evenodd" d="M4.82422 4.88269H3.2268C1.96246 4.88269 0.9375 5.90765 0.9375 7.172V16.6536C0.9375 17.918 1.96246 18.9429 3.2268 18.9429H12.7084C13.9728 18.9429 14.9977 17.918 14.9977 16.6536V14.5596H13.8531V16.6536C13.8531 17.2858 13.3406 17.7983 12.7084 17.7983H3.2268C2.59463 17.7983 2.08215 17.2858 2.08215 16.6536V7.172C2.08215 6.53982 2.59463 6.02734 3.2268 6.02734H4.82422V4.88269Z" fill="#000000" fill-opacity="0.75"/>
<path d="M15.625 10.5432L15.625 4.01047L9.09226 4.01047" stroke="#000000" stroke-opacity="0.75" stroke-width="1.14465" stroke-linejoin="round"/>
<line x1="15.7484" y1="4.32144" x2="7.53403" y2="12.5359" stroke="#000000" stroke-opacity="0.75" stroke-width="1.14465"/>
</svg>
