<svg width="15" height="15" viewBox="0 0 15 15" fill="none" xmlns="http://www.w3.org/2000/svg">
<path fill-rule="evenodd" clip-rule="evenodd" d="M4.33808 1.61547L2.83891 1.61547C1.73434 1.61547 0.838905 2.5109 0.838905 3.61547V11.8989C0.838905 13.0035 1.73433 13.8989 2.8389 13.8989H11.501C12.6055 13.8989 13.501 13.0035 13.501 11.8989V10.0696H12.501V11.8989C12.501 12.4512 12.0533 12.8989 11.501 12.8989H2.8389C2.28662 12.8989 1.83891 12.4512 1.83891 11.8989V3.61547C1.83891 3.06318 2.28662 2.61547 2.83891 2.61547H4.33808V1.61547Z" fill="#fffcf1"/>
<path d="M14.0584 6.56055L14.0584 0.853361L8.17533 0.853362" stroke="#fffcf1" stroke-linejoin="round"/>
<line y1="-0.5" x2="10.3065" y2="-0.5" transform="matrix(-0.717757 0.696293 -0.717757 -0.696293 13.8007 0.771485)" stroke="#fffcf1"/>
</svg>
