<svg width="16" height="16" viewBox="0 0 16 16" fill="#FFFFFF" xmlns="http://www.w3.org/2000/svg">
<path fill-rule="evenodd" clip-rule="evenodd" d="M3.39453 3.62109H2C0.895431 3.62109 0 4.51652 0 5.62109V13.9045C0 15.0091 0.895431 15.9045 2 15.9045H10.2834C11.388 15.9045 12.2834 15.0091 12.2834 13.9045V12.0752H11.2834V13.9045C11.2834 14.4568 10.8357 14.9045 10.2834 14.9045H2C1.44772 14.9045 1 14.4568 1 13.9045V5.62109C1 5.06881 1.44772 4.62109 2 4.62109H3.39453V3.62109Z" fill="#000000"/>
<path d="M12.8242 8.56641L12.8242 2.85922L7.11703 2.85922" stroke="#000000" stroke-linejoin="round"/>
<line x1="12.9278" y1="3.1309" x2="5.75143" y2="10.3072" stroke="#000000"/>
</svg>
