<svg width="44" height="45" viewBox="0 0 44 45" fill="none" xmlns="http://www.w3.org/2000/svg">
<path d="M28.748 21.7425L28.748 15.1342L22.1397 15.1342" stroke="white" stroke-linejoin="round"/>
<line x1="28.6055" y1="15.3929" x2="20.2961" y2="23.7024" stroke="white"/>
<path d="M17.8262 16.8945H15.4502C15.062 16.8947 14.7424 17.1902 14.7041 17.5683L14.7002 17.6464V28.6679L14.7041 28.7441C14.7424 29.1222 15.062 29.4177 15.4502 29.4179H26.4736L26.5498 29.414C26.9028 29.3781 27.184 29.0971 27.2197 28.7441L27.2236 28.6679V25.7841H28.123V28.6699L28.1152 28.8329V28.8359C28.0365 29.6126 27.4183 30.2306 26.6416 30.3095H26.6387L26.4756 30.3173H15.4482L15.2852 30.3095H15.2822C14.5055 30.2307 13.8874 29.6127 13.8086 28.8359V28.8329L13.7998 28.6699V17.6445L13.8086 17.4863C13.8831 16.7049 14.5022 16.082 15.2822 16.0029H15.2852L15.4482 15.9951H17.8262V16.8945Z" fill="white"/>
</svg>
