<svg width="55" height="55" viewBox="0 0 55 55" fill="none" xmlns="http://www.w3.org/2000/svg">
<path d="M22.2754 20.7769H19.3682C18.8159 20.7769 18.3682 21.2246 18.3682 21.7769V35.5552C18.3682 36.1075 18.8159 36.5552 19.3682 36.5552H33.1465C33.6988 36.5552 34.1465 36.1075 34.1465 35.5552V32.0132H35.1465V35.5552L35.1367 35.7603C35.041 36.7014 34.2926 37.4498 33.3516 37.5455L33.1465 37.5552H19.3682L19.1641 37.5455C18.2227 37.4501 17.4746 36.7016 17.3789 35.7603L17.3682 35.5552V21.7769C17.3682 20.7413 18.1554 19.8899 19.1641 19.7877L19.3682 19.7769H22.2754V20.7769Z" fill="white"/>
<path d="M35.9351 26.9342L35.9351 18.6738L27.6747 18.6738" stroke="white" stroke-linejoin="round"/>
<line x1="35.6685" y1="18.9089" x2="25.2817" y2="29.2957" stroke="white"/>
</svg>
