<svg width="28" height="28" viewBox="0 0 28 28" fill="none" xmlns="http://www.w3.org/2000/svg">
<path d="M11.4746 10.9402H10.3154C9.98313 10.9402 9.71397 11.2095 9.71387 11.5417V17.6453C9.71387 17.9779 9.98329 18.2478 10.3154 18.2478H16.4189C16.7513 18.2478 17.0215 17.9777 17.0215 17.6453V16.1628H18.0273V17.6521L18.0195 17.8025V17.8093C17.9428 18.567 17.3406 19.1691 16.583 19.2458H16.5762L16.4258 19.2537H10.3086L10.1582 19.2458H10.1514C9.39382 19.169 8.7916 18.5669 8.71484 17.8093V17.8025L8.70703 17.6521V11.5417C8.70713 10.7087 9.34002 10.0234 10.1514 9.94116H10.1582L10.3086 9.93335H11.4746V10.9402Z" fill="white"/>
<path d="M18.2939 13.712L18.2939 9.5067L14.0887 9.5067" stroke="white" stroke-linejoin="round"/>
<line x1="18.1534" y1="9.79993" x2="12.8655" y2="15.0878" stroke="white"/>
</svg>
