<svg width="38" height="38" viewBox="0 0 38 38" fill="none" xmlns="http://www.w3.org/2000/svg">
<path d="M15.3906 14.664H14C13.4477 14.664 13 15.1118 13 15.664V23.9473C13 24.4995 13.4477 24.9473 14 24.9473H22.2832C22.8355 24.9473 23.2832 24.4995 23.2832 23.9473V22.1181H24.2832V23.9473L24.2734 24.1523C24.1777 25.0933 23.4293 25.8418 22.4883 25.9375L22.2832 25.9473H14L13.7959 25.9375C12.8546 25.8421 12.1065 25.0936 12.0107 24.1523L12 23.9473V15.664C12 14.6284 12.7872 13.7771 13.7959 13.6748L14 13.664H15.3906V14.664Z" fill="white"/>
<path d="M24.8281 18.6091L24.8281 12.9019L19.1209 12.9019" stroke="white" stroke-linejoin="round"/>
<line x1="24.7535" y1="13.1736" x2="17.5771" y2="20.35" stroke="white"/>
</svg>
