<svg width="33" height="33" viewBox="0 0 33 33" fill="none" xmlns="http://www.w3.org/2000/svg">
<path d="M13.4292 11.8024V12.7994H12.1577C11.7137 12.7995 11.3542 13.1592 11.354 13.6031V20.7965C11.3543 21.2406 11.7139 21.6011 12.1577 21.6012H19.3511C19.7951 21.6012 20.1555 21.2405 20.1558 20.7965V19.1442H21.1519V20.8053L21.1431 20.9772V20.9801C21.0569 21.8279 20.3825 22.5026 19.5347 22.5885H19.5317L19.354 22.5973H12.1548L11.9771 22.5885H11.9741C11.1794 22.5079 10.5364 21.9101 10.3882 21.1373L10.3657 20.9801V20.9772L10.3569 20.8004V13.6031C10.3571 12.729 10.98 12.0001 11.8062 11.8365L11.9741 11.8121H11.9771L12.1548 11.8024H13.4292Z" fill="white"/>
<path d="M21.561 16.1605L21.561 11.2043L16.6048 11.2043" stroke="white" stroke-linejoin="round"/>
<line x1="21.3326" y1="11.4867" x2="15.1005" y2="17.7188" stroke="white"/>
</svg>
