<svg width="461" height="499" viewBox="0 0 461 499" fill="none" xmlns="http://www.w3.org/2000/svg">
<mask id="mask0_2048_3165" style="mask-type:alpha" maskUnits="userSpaceOnUse" x="0" y="0" width="517" height="499">
<rect x="0.5" y="0.5" width="516" height="498" fill="#000000" stroke="#000000"/>
</mask>
<g mask="url(#mask0_2048_3165)">
<path d="M60.5031 2.62915C93.1532 2.62915 119.496 27.2416 119.496 57.4538C119.496 87.6659 93.1532 112.278 60.5031 112.278C27.8529 112.278 1.50977 87.6659 1.50977 57.4538C1.50977 27.2416 27.8529 2.62915 60.5031 2.62915Z" stroke="#000000" stroke-width="2"/>
<path d="M60.5047 234.928H1.51141L1.51141 180.104C1.51141 149.911 27.8761 125.279 60.5047 125.279H119.498V180.104C119.498 210.296 93.1333 234.928 60.5047 234.928Z" stroke="#000000" stroke-width="2"/>
<path d="M60.5031 247.934C93.1532 247.934 119.496 272.546 119.496 302.758C119.496 332.971 93.1532 357.583 60.5031 357.583C27.8529 357.583 1.50977 332.971 1.50977 302.758C1.50977 272.546 27.8529 247.934 60.5031 247.934Z" stroke="#000000" stroke-width="2"/>
<path d="M119.498 480.235H60.5047C27.8761 480.235 1.51141 455.602 1.51141 425.41V370.586H60.5047C93.1333 370.586 119.498 395.218 119.498 425.41L119.498 480.235Z" stroke="#000000" stroke-width="2"/>
<path d="M251.307 112.275C186.386 111.777 133.9 62.8649 133.325 2.62915H251.307V112.275Z" stroke="#000000" stroke-width="2"/>
<path d="M133.32 180.106V126.578L249.764 234.931H192.314C159.661 234.931 133.32 210.321 133.32 180.106Z" stroke="#000000" stroke-width="2"/>
<path d="M133.325 357.583C133.9 297.347 186.386 248.435 251.307 247.938V357.583H133.325Z" stroke="#000000" stroke-width="2"/>
<path d="M133.32 478.937V425.409C133.32 395.194 159.661 370.584 192.314 370.584H249.764L133.32 478.937Z" stroke="#000000" stroke-width="2"/>
<path d="M324.128 2.62915H383.121V112.278H265.135V57.4538C265.135 27.2616 291.5 2.62915 324.128 2.62915Z" stroke="#000000" stroke-width="2"/>
<path d="M324.124 234.928C291.495 234.928 265.131 210.296 265.131 180.104C265.131 149.911 291.495 125.279 324.124 125.279H383.117V180.104C383.117 210.296 356.752 234.928 324.124 234.928Z" stroke="#000000" stroke-width="2"/>
<path d="M265.135 247.934H383.121V357.583H324.128C291.5 357.583 265.135 332.951 265.135 302.758V247.934Z" stroke="#000000" stroke-width="2"/>
<path d="M383.117 480.235H324.124C291.495 480.235 265.131 455.602 265.131 425.41C265.131 395.218 291.495 370.586 324.124 370.586C356.752 370.586 383.117 395.218 383.117 425.41V480.235Z" stroke="#000000" stroke-width="2"/>
<path d="M455.937 2.62915C488.565 2.62915 514.93 27.2616 514.93 57.4538C514.93 87.6459 488.565 112.278 455.937 112.278H396.943V57.4538C396.943 27.2616 423.308 2.62915 455.937 2.62915Z" stroke="#000000" stroke-width="2"/>
<path d="M455.936 234.928H396.943V125.279L514.93 125.279V180.104C514.93 210.296 488.565 234.928 455.936 234.928Z" stroke="#000000" stroke-width="2"/>
<path d="M396.943 247.934H455.937C488.565 247.934 514.93 272.566 514.93 302.758C514.93 332.951 488.565 357.583 455.937 357.583C423.308 357.583 396.943 332.951 396.943 302.758V247.934Z" stroke="#000000" stroke-width="2"/>
<path d="M514.93 480.235H396.943V370.586H455.936C488.565 370.586 514.93 395.218 514.93 425.41V480.235Z" stroke="#000000" stroke-width="2"/>
</g>
</svg>
