<svg width="335" height="435" viewBox="0 0 335 435" fill="none" xmlns="http://www.w3.org/2000/svg">
<path d="M59.4322 50.3278C-8.14591 49.8299 -62.7892 -1.08946 -63.3646 -63.7979H59.4322V50.3278Z" stroke="#FFF9DE" stroke-width="2"/>
<path d="M-63.3691 120.843V65.0743L57.8895 177.907H-1.96847C-35.9511 177.907 -63.3691 152.295 -63.3691 120.843Z" stroke="#FFF9DE" stroke-width="2"/>
<path d="M-63.3646 305.483C-62.7892 242.775 -8.14591 191.856 59.4322 191.358V305.483H-63.3646Z" stroke="#FFF9DE" stroke-width="2"/>
<path d="M-63.3691 431.759V375.991C-63.3691 344.539 -35.9511 318.926 -1.96847 318.926H57.8895L-63.3691 431.759Z" stroke="#FFF9DE" stroke-width="2"/>
<path d="M135.137 -63.7979H196.538V50.3315H73.7363V-6.73319C73.7363 -38.1616 101.18 -63.7979 135.137 -63.7979Z" stroke="#FFF9DE" stroke-width="2"/>
<path d="M135.14 177.904C101.183 177.904 73.7397 152.268 73.7397 120.839C73.7397 89.4107 101.183 63.7745 135.14 63.7745L196.541 63.7745L196.541 120.839C196.541 152.268 169.098 177.904 135.14 177.904Z" stroke="#FFF9DE" stroke-width="2"/>
<path d="M73.7363 191.354H196.538V305.483H135.137C101.18 305.483 73.7363 279.847 73.7363 248.419V191.354Z" stroke="#FFF9DE" stroke-width="2"/>
<path d="M196.541 433.067H135.14C101.183 433.067 73.7397 407.431 73.7397 376.003C73.7397 344.574 101.183 318.938 135.14 318.938C169.098 318.938 196.541 344.574 196.541 376.003V433.067Z" stroke="#FFF9DE" stroke-width="2"/>
<path d="M272.237 -63.7979C306.194 -63.7979 333.637 -38.1616 333.637 -6.73319C333.637 24.6953 306.194 50.3315 272.237 50.3315H210.836V-6.73319C210.836 -38.1616 238.279 -63.7979 272.237 -63.7979Z" stroke="#FFF9DE" stroke-width="2"/>
<path d="M272.244 177.904H210.843V63.7745L333.645 63.7745V120.839C333.645 152.268 306.201 177.904 272.244 177.904Z" stroke="#FFF9DE" stroke-width="2"/>
<path d="M210.836 191.354H272.237C306.194 191.354 333.637 216.99 333.637 248.419C333.637 279.847 306.194 305.483 272.237 305.483C238.279 305.483 210.836 279.847 210.836 248.419V191.354Z" stroke="#FFF9DE" stroke-width="2"/>
<path d="M333.645 433.067H210.843V318.938H272.244C306.201 318.938 333.645 344.574 333.645 376.003V433.067Z" stroke="#FFF9DE" stroke-width="2"/>
</svg>
