<svg width="38" height="38" viewBox="0 0 38 38" fill="none" xmlns="http://www.w3.org/2000/svg">
<path fill-rule="evenodd" clip-rule="evenodd" d="M15.8968 12.1482H14C12.8954 12.1482 12 13.0437 12 14.1482V24.2523C12 25.3569 12.8954 26.2523 14 26.2523H24.1041C25.2087 26.2523 26.1041 25.3569 26.1041 24.2523V21.8568H25.1041V24.2523C25.1041 24.8046 24.6564 25.2523 24.1041 25.2523H14C13.4477 25.2523 13 24.8046 13 24.2523V14.1482C13 13.596 13.4477 13.1482 14 13.1482H15.8968V12.1482Z" fill="white"/>
<path d="M26.7201 17.8296L26.7201 11.2765L20.167 11.2765" stroke="white" stroke-linejoin="round"/>
<line x1="26.7924" y1="11.5351" x2="18.5524" y2="19.7751" stroke="white"/>
</svg>
